<svg width="342" height="348" viewBox="0 0 342 348" fill="none" xmlns="http://www.w3.org/2000/svg">
<g filter="url(#filter0_d_1_46)">
<path d="M110.16 299H117.68C122.6 299 125.04 296.44 125.04 291.6V278.36C125.04 273.56 122.6 271 117.68 271H110.16V299ZM114.72 294.96V275.04H117.6C119.56 275.04 120.52 275.96 120.52 278.24V291.76C120.52 294.04 119.56 294.96 117.6 294.96H114.72ZM130.176 299H134.736V271H130.176V299ZM146.67 299.4C151.47 299.4 154.11 296.56 154.11 292.04C154.11 288.32 152.91 285.96 148.51 283.16C145.07 280.96 143.99 279.84 143.99 277.64C143.99 275.64 145.03 274.56 146.79 274.56C148.67 274.56 149.63 275.72 149.63 277.76V278.84H153.91V277.88C153.91 273.36 151.51 270.6 146.75 270.6C142.03 270.6 139.47 273.4 139.47 277.8C139.47 281.32 140.79 283.64 145.11 286.44C148.55 288.68 149.55 289.8 149.55 292.24C149.55 294.36 148.39 295.44 146.63 295.44C144.71 295.44 143.67 294.28 143.67 292.28V290.72H139.39V292.12C139.39 296.6 141.87 299.4 146.67 299.4ZM165.643 299.4C170.363 299.4 172.883 296.68 172.883 292V288.68H168.603V292.2C168.603 294.36 167.523 295.44 165.763 295.44C164.003 295.44 162.923 294.36 162.923 292.2V277.8C162.923 275.64 164.003 274.56 165.763 274.56C167.523 274.56 168.603 275.64 168.603 277.8V280.48H172.883V278C172.883 273.32 170.363 270.6 165.643 270.6C160.963 270.6 158.363 273.32 158.363 278V292C158.363 296.68 160.963 299.4 165.643 299.4ZM184.804 299.4C189.644 299.4 192.324 296.64 192.324 291.88V278.12C192.324 273.32 189.644 270.6 184.804 270.6C180.004 270.6 177.324 273.32 177.324 278.12V291.88C177.324 296.64 180.004 299.4 184.804 299.4ZM184.804 295.36C182.924 295.36 181.884 294.28 181.884 292.12V277.88C181.884 275.68 182.924 274.64 184.804 274.64C186.684 274.64 187.764 275.68 187.764 277.88V292.12C187.764 294.28 186.684 295.36 184.804 295.36ZM197.426 299H201.986V287.16H204.066C206.626 287.16 207.546 288.12 207.546 290.92V295.32C207.546 297.72 207.706 298.2 207.986 299H212.586C212.146 297.88 212.066 296.76 212.066 295.36V291.2C212.066 287.64 211.106 285.6 208.666 284.92V284.8C210.946 283.96 212.026 282.12 212.026 279.08V277.72C212.026 273.16 209.746 271 204.706 271H197.426V299ZM201.986 283.12V275.04H204.626C206.626 275.04 207.466 276 207.466 278.2V279.8C207.466 282.2 206.386 283.12 204.146 283.12H201.986ZM217.324 299H224.844C229.764 299 232.204 296.44 232.204 291.6V278.36C232.204 273.56 229.764 271 224.844 271H217.324V299ZM221.884 294.96V275.04H224.764C226.724 275.04 227.684 275.96 227.684 278.24V291.76C227.684 294.04 226.724 294.96 224.764 294.96H221.884Z" fill="white"/>
<path d="M198.768 127.814C193.589 125.565 188.052 123.931 182.263 123C181.552 124.193 180.721 125.798 180.149 127.074C173.995 126.215 167.898 126.215 161.857 127.074C161.285 125.798 160.435 124.193 159.718 123C153.923 123.931 148.379 125.571 143.201 127.826C132.755 142.476 129.924 156.762 131.34 170.845C138.268 175.647 144.981 178.564 151.582 180.473C153.212 178.391 154.665 176.178 155.917 173.846C153.533 173.005 151.248 171.967 149.09 170.762C149.663 170.368 150.223 169.956 150.764 169.533C163.927 175.247 178.23 175.247 191.236 169.533C191.783 169.956 192.343 170.368 192.909 170.762C190.745 171.973 188.455 173.011 186.07 173.852C187.322 176.178 188.769 178.397 190.405 180.479C197.012 178.57 203.732 175.653 210.66 170.845C212.321 154.519 207.822 140.364 198.768 127.814ZM157.711 162.184C153.759 162.184 150.519 158.76 150.519 154.591C150.519 150.421 153.69 146.991 157.711 146.991C161.731 146.991 164.972 150.415 164.903 154.591C164.909 158.76 161.731 162.184 157.711 162.184ZM184.289 162.184C180.338 162.184 177.097 158.76 177.097 154.591C177.097 150.421 180.268 146.991 184.289 146.991C188.31 146.991 191.55 150.415 191.481 154.591C191.481 158.76 188.31 162.184 184.289 162.184Z" fill="#563DFE"/>
</g>
<defs>
<filter id="filter0_d_1_46" x="-48" y="-48" width="438" height="438" filterUnits="userSpaceOnUse" color-interpolation-filters="sRGB">
<feFlood flood-opacity="0" result="BackgroundImageFix"/>
<feColorMatrix in="SourceAlpha" type="matrix" values="0 0 0 0 0 0 0 0 0 0 0 0 0 0 0 0 0 0 127 0" result="hardAlpha"/>
<feOffset/>
<feGaussianBlur stdDeviation="24"/>
<feComposite in2="hardAlpha" operator="out"/>
<feColorMatrix type="matrix" values="0 0 0 0 0.337255 0 0 0 0 0.239216 0 0 0 0 0.996078 0 0 0 1 0"/>
<feBlend mode="normal" in2="BackgroundImageFix" result="effect1_dropShadow_1_46"/>
<feBlend mode="normal" in="SourceGraphic" in2="effect1_dropShadow_1_46" result="shape"/>
</filter>
</defs>
</svg>
