<svg width="342" height="342" viewBox="0 0 342 342" fill="none" xmlns="http://www.w3.org/2000/svg">
<path d="M61.3575 299.4C66.0775 299.4 68.5975 296.68 68.5975 292V288.68H64.3175V292.2C64.3175 294.36 63.2375 295.44 61.4775 295.44C59.7175 295.44 58.6375 294.36 58.6375 292.2V277.8C58.6375 275.64 59.7175 274.56 61.4775 274.56C63.2375 274.56 64.3175 275.64 64.3175 277.8V280.48H68.5975V278C68.5975 273.32 66.0775 270.6 61.3575 270.6C56.6775 270.6 54.0775 273.32 54.0775 278V292C54.0775 296.68 56.6775 299.4 61.3575 299.4ZM80.5184 299.4C85.3584 299.4 88.0384 296.64 88.0384 291.88V278.12C88.0384 273.32 85.3584 270.6 80.5184 270.6C75.7184 270.6 73.0384 273.32 73.0384 278.12V291.88C73.0384 296.64 75.7184 299.4 80.5184 299.4ZM80.5184 295.36C78.6384 295.36 77.5984 294.28 77.5984 292.12V277.88C77.5984 275.68 78.6384 274.64 80.5184 274.64C82.3984 274.64 83.4784 275.68 83.4784 277.88V292.12C83.4784 294.28 82.3984 295.36 80.5184 295.36ZM93.1406 299H97.7006V287.16H99.7806C102.341 287.16 103.261 288.12 103.261 290.92V295.32C103.261 297.72 103.421 298.2 103.701 299H108.301C107.861 297.88 107.781 296.76 107.781 295.36V291.2C107.781 287.64 106.821 285.6 104.381 284.92V284.8C106.661 283.96 107.741 282.12 107.741 279.08V277.72C107.741 273.16 105.461 271 100.421 271H93.1406V299ZM97.7006 283.12V275.04H100.341C102.341 275.04 103.181 276 103.181 278.2V279.8C103.181 282.2 102.101 283.12 99.8606 283.12H97.7006ZM119.479 299.4C124.279 299.4 126.919 296.56 126.919 292.04C126.919 288.32 125.719 285.96 121.319 283.16C117.879 280.96 116.799 279.84 116.799 277.64C116.799 275.64 117.839 274.56 119.599 274.56C121.479 274.56 122.439 275.72 122.439 277.76V278.84H126.719V277.88C126.719 273.36 124.319 270.6 119.559 270.6C114.839 270.6 112.279 273.4 112.279 277.8C112.279 281.32 113.599 283.64 117.919 286.44C121.359 288.68 122.359 289.8 122.359 292.24C122.359 294.36 121.199 295.44 119.439 295.44C117.519 295.44 116.479 294.28 116.479 292.28V290.72H112.199V292.12C112.199 296.6 114.679 299.4 119.479 299.4ZM142.297 299H146.937L141.537 271H135.377L130.017 299H134.257L135.217 293.56H141.377L142.297 299ZM135.897 289.6L138.297 275.72L140.697 289.6H135.897ZM151.117 299H155.677V271H151.117V299ZM161.172 299H165.732V287.16H167.812C170.372 287.16 171.292 288.12 171.292 290.92V295.32C171.292 297.72 171.452 298.2 171.732 299H176.332C175.892 297.88 175.812 296.76 175.812 295.36V291.2C175.812 287.64 174.852 285.6 172.412 284.92V284.8C174.692 283.96 175.772 282.12 175.772 279.08V277.72C175.772 273.16 173.492 271 168.452 271H161.172V299ZM165.732 283.12V275.04H168.372C170.372 275.04 171.212 276 171.212 278.2V279.8C171.212 282.2 170.132 283.12 167.892 283.12H165.732ZM189.406 299H193.966V286.92H200.686V282.88H193.966V275.04H202.446V271H189.406V299ZM213.808 299.4C218.648 299.4 221.328 296.64 221.328 291.88V278.12C221.328 273.32 218.648 270.6 213.808 270.6C209.008 270.6 206.328 273.32 206.328 278.12V291.88C206.328 296.64 209.008 299.4 213.808 299.4ZM213.808 295.36C211.928 295.36 210.888 294.28 210.888 292.12V277.88C210.888 275.68 211.928 274.64 213.808 274.64C215.688 274.64 216.768 275.68 216.768 277.88V292.12C216.768 294.28 215.688 295.36 213.808 295.36ZM226.43 299H230.99V287.16H233.07C235.63 287.16 236.55 288.12 236.55 290.92V295.32C236.55 297.72 236.71 298.2 236.99 299H241.59C241.15 297.88 241.07 296.76 241.07 295.36V291.2C241.07 287.64 240.11 285.6 237.67 284.92V284.8C239.95 283.96 241.03 282.12 241.03 279.08V277.72C241.03 273.16 238.75 271 233.71 271H226.43V299ZM230.99 283.12V275.04H233.63C235.63 275.04 236.47 276 236.47 278.2V279.8C236.47 282.2 235.39 283.12 233.15 283.12H230.99ZM253.489 299.4C258.289 299.4 260.849 296.64 260.849 291.88V271H256.489V292.16C256.489 294.4 255.449 295.36 253.569 295.36C251.689 295.36 250.689 294.4 250.689 292.16V271H246.129V291.88C246.129 296.64 248.649 299.4 253.489 299.4ZM266.188 299H270.188V277.32L274.308 299H278.108L282.228 277.32V299H286.548V271H280.108L276.388 291.56L272.628 271H266.188V299Z" fill="white"/>
<path fill-rule="evenodd" clip-rule="evenodd" d="M172.016 130.545C174.334 134.677 175.814 139.373 176.272 144.409C176.904 151.362 175.422 158.018 172.402 163.785C173.789 158.863 174.292 153.47 173.787 147.91C173.746 147.467 173.717 147.023 173.664 146.586L160.823 137.773C162.268 141.094 163.186 144.715 163.533 148.526C164.105 154.816 162.934 160.866 160.478 166.234C161.582 161.708 161.936 156.825 161.479 151.799C161.462 151.604 161.452 151.407 161.432 151.213L149.418 144.652C150.777 147.566 151.63 150.759 151.935 154.123C152.682 162.339 149.857 169.955 144.667 175.92C195.932 153.528 197.993 168.274 197.993 168.274C197.993 168.274 201.859 163.056 200.531 157.408C198.767 149.899 172.016 130.545 172.016 130.545V130.545ZM151.782 136.492C151.782 136.492 155.586 141.52 154.97 145.679L160.968 147.216C160.523 145.053 159.685 142.545 158.951 140.548L151.782 136.492ZM163.11 128.872C163.11 128.872 167.04 135.203 166.423 139.362L173.076 141.965C172.405 139.205 171.888 136.561 170.751 134.099L163.11 128.872ZM175.247 120.063C175.247 120.063 179.718 129.42 178.896 133.319C178.896 133.319 190.563 137.209 191.861 143.617C191.861 143.617 198.25 134.955 175.247 120.063V120.063ZM170.506 196C146.481 196 127.006 176.301 127.006 151.999C127.006 127.699 146.481 108 170.506 108C194.53 108 214.006 127.699 214.006 151.999C214.006 176.301 194.53 196 170.506 196V196Z" fill="white"/>
</svg>
