<svg width="342" height="342" viewBox="0 0 342 342" fill="none" xmlns="http://www.w3.org/2000/svg">
<rect width="342" height="342" fill="url(#paint0_linear_0_118)"/>
<path d="M89.1211 299H93.6811V271H89.1211V299ZM99.1758 299H103.256V278.04L110.016 299H114.656V271H110.536V288.56L104.856 271H99.1758V299ZM126.608 299.4C131.408 299.4 134.048 296.56 134.048 292.04C134.048 288.32 132.848 285.96 128.448 283.16C125.008 280.96 123.928 279.84 123.928 277.64C123.928 275.64 124.968 274.56 126.728 274.56C128.608 274.56 129.568 275.72 129.568 277.76V278.84H133.848V277.88C133.848 273.36 131.448 270.6 126.688 270.6C121.968 270.6 119.408 273.4 119.408 277.8C119.408 281.32 120.728 283.64 125.048 286.44C128.488 288.68 129.488 289.8 129.488 292.24C129.488 294.36 128.328 295.44 126.568 295.44C124.648 295.44 123.608 294.28 123.608 292.28V290.72H119.328V292.12C119.328 296.6 121.808 299.4 126.608 299.4ZM142.741 299H147.261V275.04H152.621V271H137.381V275.04H142.741V299ZM165.652 299H170.292L164.892 271H158.732L153.372 299H157.612L158.572 293.56H164.732L165.652 299ZM159.252 289.6L161.652 275.72L164.052 289.6H159.252ZM181.277 299.4C185.997 299.4 188.637 296.68 188.637 291.92V283.24H181.557V287.36H184.357V292.12C184.357 294.32 183.277 295.36 181.397 295.36C179.517 295.36 178.477 294.32 178.477 292.12V277.88C178.477 275.68 179.517 274.64 181.397 274.64C183.277 274.64 184.357 275.68 184.357 277.88V280.08H188.637V278.12C188.637 273.32 185.997 270.6 181.277 270.6C176.517 270.6 173.917 273.32 173.917 278.12V291.92C173.917 296.68 176.557 299.4 181.277 299.4ZM193.668 299H198.228V287.16H200.308C202.868 287.16 203.788 288.12 203.788 290.92V295.32C203.788 297.72 203.948 298.2 204.228 299H208.828C208.388 297.88 208.308 296.76 208.308 295.36V291.2C208.308 287.64 207.348 285.6 204.908 284.92V284.8C207.188 283.96 208.268 282.12 208.268 279.08V277.72C208.268 273.16 205.988 271 200.948 271H193.668V299ZM198.228 283.12V275.04H200.868C202.868 275.04 203.708 276 203.708 278.2V279.8C203.708 282.2 202.628 283.12 200.388 283.12H198.228ZM224.684 299H229.324L223.924 271H217.764L212.404 299H216.644L217.604 293.56H223.764L224.684 299ZM218.284 289.6L220.684 275.72L223.084 289.6H218.284ZM233.504 299H237.504V277.32L241.624 299H245.424L249.544 277.32V299H253.864V271H247.424L243.704 291.56L239.944 271H233.504V299Z" fill="white"/>
<g clip-path="url(#clip0_0_118)">
<path d="M172 119.206C182.681 119.206 183.945 119.248 188.164 119.44C192.064 119.618 194.182 120.269 195.592 120.816C197.331 121.457 198.905 122.48 200.196 123.809C201.526 125.101 202.549 126.674 203.189 128.414C203.737 129.824 204.388 131.942 204.566 135.842C204.758 140.061 204.799 141.324 204.799 152.006C204.799 162.687 204.758 163.951 204.566 168.169C204.388 172.069 203.737 174.187 203.189 175.597C202.523 177.322 201.504 178.888 200.196 180.196C198.889 181.503 197.323 182.522 195.598 183.189C194.188 183.736 192.07 184.387 188.17 184.565C183.953 184.757 182.688 184.799 172.006 184.799C161.325 184.799 160.06 184.757 155.842 184.565C151.943 184.387 149.825 183.736 148.415 183.189C146.675 182.548 145.102 181.525 143.81 180.196C142.48 178.904 141.458 177.33 140.817 175.591C140.269 174.181 139.618 172.063 139.44 168.163C139.248 163.944 139.207 162.68 139.207 151.999C139.207 141.318 139.248 140.054 139.44 135.835C139.618 131.936 140.269 129.818 140.817 128.408C141.458 126.668 142.48 125.095 143.81 123.803C145.102 122.473 146.675 121.451 148.415 120.81C149.825 120.262 151.943 119.611 155.842 119.433C160.061 119.241 161.325 119.2 172.006 119.2L172 119.206ZM172.006 111.993C161.143 111.993 159.78 112.039 155.514 112.234C151.247 112.43 148.342 113.111 145.801 114.098C143.131 115.103 140.713 116.678 138.713 118.713C136.679 120.712 135.104 123.131 134.099 125.8C133.111 128.341 132.435 131.253 132.241 135.51C132.048 139.767 132 141.136 132 151.999C132 162.863 132.046 164.225 132.241 168.492C132.437 172.758 133.111 175.658 134.099 178.198C135.104 180.867 136.679 183.284 138.713 185.283C140.712 187.319 143.131 188.894 145.801 189.899C148.342 190.888 151.254 191.564 155.511 191.758C159.768 191.952 161.139 191.999 172.003 191.999C182.867 191.999 184.229 191.953 188.496 191.758C192.762 191.563 195.658 190.888 198.199 189.899C200.857 188.872 203.271 187.3 205.286 185.285C207.301 183.27 208.872 180.856 209.899 178.198C210.889 175.658 211.565 172.746 211.759 168.489C211.952 164.232 212 162.86 212 151.996C212 141.132 211.954 139.77 211.759 135.504C211.563 131.237 210.889 128.341 209.899 125.8C208.895 123.132 207.321 120.714 205.287 118.716C203.288 116.68 200.869 115.104 198.199 114.098C195.658 113.111 192.746 112.434 188.489 112.241C184.232 112.047 182.864 111.999 172 111.999L172.006 111.993Z" fill="white"/>
<path d="M172 131.46C167.938 131.46 163.966 132.665 160.589 134.922C157.211 137.179 154.578 140.386 153.024 144.14C151.469 147.893 151.062 152.023 151.855 156.007C152.647 159.991 154.604 163.651 157.476 166.524C160.349 169.396 164.008 171.353 167.993 172.145C171.977 172.938 176.107 172.531 179.86 170.976C183.613 169.422 186.821 166.789 189.078 163.411C191.335 160.033 192.54 156.062 192.54 152C192.54 149.303 192.009 146.631 190.977 144.139C189.945 141.647 188.432 139.383 186.524 137.476C184.617 135.568 182.353 134.055 179.86 133.023C177.368 131.991 174.697 131.46 172 131.46V131.46ZM172 165.337C169.362 165.337 166.783 164.555 164.59 163.09C162.397 161.624 160.687 159.541 159.678 157.104C158.668 154.667 158.404 151.985 158.919 149.398C159.433 146.811 160.704 144.434 162.569 142.569C164.434 140.704 166.811 139.433 169.398 138.919C171.985 138.404 174.667 138.668 177.104 139.678C179.541 140.687 181.624 142.397 183.09 144.59C184.555 146.783 185.338 149.362 185.338 152C185.338 155.537 183.932 158.93 181.431 161.431C178.93 163.932 175.537 165.337 172 165.337Z" fill="white"/>
<path d="M193.353 135.447C196.004 135.447 198.153 133.298 198.153 130.647C198.153 127.996 196.004 125.847 193.353 125.847C190.702 125.847 188.553 127.996 188.553 130.647C188.553 133.298 190.702 135.447 193.353 135.447Z" fill="white"/>
</g>
<defs>
<linearGradient id="paint0_linear_0_118" x1="342" y1="0" x2="0" y2="342" gradientUnits="userSpaceOnUse">
<stop offset="0.0724195" stop-color="#C20099"/>
<stop offset="0.280307" stop-color="#D1006C"/>
<stop offset="0.488195" stop-color="#E30036"/>
<stop offset="0.696082" stop-color="#F8470B"/>
<stop offset="0.920601" stop-color="#FEC11D"/>
</linearGradient>
<clipPath id="clip0_0_118">
<rect width="80" height="80" fill="white" transform="translate(132 112)"/>
</clipPath>
</defs>
</svg>
