<svg width="342" height="342" viewBox="0 0 342 342" fill="none" xmlns="http://www.w3.org/2000/svg">
<path d="M171 192C193.091 192 211 174.091 211 152C211 129.909 193.091 112 171 112C148.909 112 131 129.909 131 152C131 174.091 148.909 192 171 192Z" fill="#FF5C00"/>
<path d="M197.68 152C197.639 150.874 197.273 149.784 196.626 148.861C195.98 147.938 195.08 147.222 194.036 146.8C192.991 146.377 191.847 146.265 190.74 146.478C189.634 146.691 188.613 147.219 187.8 148C183.25 144.906 177.901 143.198 172.4 143.08L175 130.6L183.56 132.4C183.662 133.345 184.097 134.224 184.789 134.878C185.48 135.532 186.381 135.917 187.332 135.966C188.282 136.015 189.218 135.724 189.973 135.145C190.727 134.565 191.251 133.736 191.449 132.805C191.648 131.875 191.508 130.904 191.055 130.068C190.602 129.231 189.866 128.583 188.978 128.24C188.091 127.898 187.11 127.882 186.212 128.197C185.315 128.513 184.559 129.137 184.08 129.96L174.28 128C174.12 127.964 173.954 127.961 173.793 127.991C173.631 128.02 173.477 128.081 173.34 128.17C173.202 128.26 173.083 128.375 172.991 128.511C172.898 128.646 172.833 128.799 172.8 128.96L169.84 142.84C164.272 142.923 158.849 144.634 154.24 147.76C153.623 147.179 152.888 146.74 152.085 146.472C151.282 146.205 150.43 146.115 149.588 146.209C148.747 146.303 147.936 146.579 147.212 147.018C146.488 147.457 145.868 148.048 145.395 148.75C144.922 149.452 144.607 150.249 144.472 151.085C144.338 151.921 144.387 152.776 144.615 153.591C144.844 154.406 145.248 155.162 145.797 155.806C146.347 156.449 147.031 156.966 147.8 157.32C147.755 157.905 147.755 158.494 147.8 159.08C147.8 168.04 158.24 175.32 171.12 175.32C184 175.32 194.44 168.04 194.44 159.08C194.485 158.494 194.485 157.905 194.44 157.32C195.427 156.829 196.255 156.069 196.829 155.128C197.402 154.186 197.697 153.102 197.68 152V152ZM157.68 156C157.68 155.208 157.915 154.435 158.354 153.777C158.794 153.119 159.418 152.607 160.149 152.304C160.88 152.001 161.684 151.922 162.46 152.076C163.236 152.231 163.949 152.612 164.508 153.171C165.068 153.73 165.449 154.443 165.603 155.219C165.758 155.995 165.678 156.799 165.376 157.53C165.073 158.261 164.56 158.886 163.902 159.325C163.245 159.765 162.471 160 161.68 160C161.155 160 160.635 159.896 160.149 159.695C159.664 159.494 159.223 159.199 158.852 158.828C158.48 158.456 158.186 158.016 157.985 157.53C157.783 157.045 157.68 156.525 157.68 156V156ZM180.92 167C178.082 169.138 174.59 170.227 171.04 170.08C167.49 170.227 163.998 169.138 161.16 167C160.99 166.792 160.903 166.529 160.916 166.261C160.929 165.994 161.042 165.74 161.231 165.551C161.421 165.361 161.674 165.249 161.942 165.236C162.21 165.222 162.473 165.309 162.68 165.48C165.085 167.244 168.021 168.133 171 168C173.983 168.162 176.932 167.301 179.36 165.56C179.572 165.353 179.858 165.239 180.154 165.242C180.301 165.244 180.446 165.275 180.581 165.333C180.715 165.391 180.838 165.474 180.94 165.58C181.042 165.685 181.123 165.809 181.178 165.945C181.232 166.081 181.259 166.227 181.257 166.374C181.255 166.52 181.225 166.665 181.167 166.8C181.109 166.935 181.025 167.057 180.92 167.16V167ZM180.2 160.16C179.409 160.16 178.636 159.925 177.978 159.485C177.32 159.046 176.807 158.421 176.505 157.69C176.202 156.959 176.123 156.155 176.277 155.379C176.431 154.603 176.812 153.89 177.372 153.331C177.931 152.772 178.644 152.391 179.42 152.236C180.196 152.082 181 152.161 181.731 152.464C182.462 152.767 183.086 153.279 183.526 153.937C183.965 154.595 184.2 155.368 184.2 156.16C184.222 156.701 184.133 157.242 183.939 157.749C183.745 158.255 183.451 158.717 183.073 159.106C182.695 159.496 182.242 159.804 181.741 160.012C181.24 160.221 180.702 160.325 180.16 160.32L180.2 160.16Z" fill="white"/>
<path d="M120.156 299H124.716V287.16H126.796C129.356 287.16 130.276 288.12 130.276 290.92V295.32C130.276 297.72 130.436 298.2 130.716 299H135.316C134.876 297.88 134.796 296.76 134.796 295.36V291.2C134.796 287.64 133.836 285.6 131.396 284.92V284.8C133.676 283.96 134.756 282.12 134.756 279.08V277.72C134.756 273.16 132.476 271 127.436 271H120.156V299ZM124.716 283.12V275.04H127.356C129.356 275.04 130.196 276 130.196 278.2V279.8C130.196 282.2 129.116 283.12 126.876 283.12H124.716ZM140.055 299H153.495V294.96H144.615V286.6H151.735V282.56H144.615V275.04H153.495V271H140.055V299ZM158 299H165.52C170.44 299 172.88 296.44 172.88 291.6V278.36C172.88 273.56 170.44 271 165.52 271H158V299ZM162.56 294.96V275.04H165.44C167.4 275.04 168.36 275.96 168.36 278.24V291.76C168.36 294.04 167.4 294.96 165.44 294.96H162.56ZM178.016 299H185.536C190.456 299 192.896 296.44 192.896 291.6V278.36C192.896 273.56 190.456 271 185.536 271H178.016V299ZM182.576 294.96V275.04H185.456C187.416 275.04 188.376 275.96 188.376 278.24V291.76C188.376 294.04 187.416 294.96 185.456 294.96H182.576ZM198.031 299H202.591V271H198.031V299ZM212.206 299H216.726V275.04H222.086V271H206.846V275.04H212.206V299Z" fill="white"/>
</svg>
