<svg width="342" height="342" viewBox="0 0 342 342" fill="none" xmlns="http://www.w3.org/2000/svg">
<path d="M121.358 299H125.878V275.04H131.238V271H115.998V275.04H121.358V299ZM137.972 299H143.972L146.572 279.16L149.172 299H154.812L158.292 271H154.332L151.772 293.08L149.012 271H144.212L141.452 293.08L138.892 271H134.492L137.972 299ZM162.582 299H167.142V271H162.582V299ZM176.757 299H181.277V275.04H186.637V271H171.397V275.04H176.757V299ZM197.658 299.4C202.378 299.4 204.898 296.68 204.898 292V288.68H200.618V292.2C200.618 294.36 199.538 295.44 197.778 295.44C196.018 295.44 194.938 294.36 194.938 292.2V277.8C194.938 275.64 196.018 274.56 197.778 274.56C199.538 274.56 200.618 275.64 200.618 277.8V280.48H204.898V278C204.898 273.32 202.378 270.6 197.658 270.6C192.978 270.6 190.378 273.32 190.378 278V292C190.378 296.68 192.978 299.4 197.658 299.4ZM209.621 299H214.181V286.6H220.221V299H224.781V271H220.221V282.56H214.181V271H209.621V299Z" fill="white"/>
<g clip-path="url(#clip0_2230_1022)">
<path d="M150.474 112L136 126.286V177.714H153.368V192L167.842 177.714H179.421L205.474 152V112H150.474ZM199.684 149.143L188.105 160.571H176.526L166.395 170.571V160.571H153.368V117.714H199.684V149.143Z" fill="#9146FF"/>
<path d="M191 127.714H185.211V144.857H191V127.714Z" fill="#9146FF"/>
<path d="M175.079 127.714H169.289V144.857H175.079V127.714Z" fill="#9146FF"/>
</g>
<defs>
<clipPath id="clip0_2230_1022">
<rect x="136" y="112" width="69.4737" height="80" rx="4" fill="white"/>
</clipPath>
</defs>
</svg>
