<svg width="342" height="347" viewBox="0 0 342 347" fill="none" xmlns="http://www.w3.org/2000/svg">
<g filter="url(#filter0_d_2230_1023)">
<path fill-rule="evenodd" clip-rule="evenodd" d="M167.699 133.697L167.907 137.179L164.445 136.753C151.842 135.119 140.832 129.576 131.484 120.267L126.914 115.649L125.737 119.059C123.244 126.663 124.837 134.692 130.03 140.093C132.8 143.077 132.177 143.504 127.399 141.727C125.737 141.159 124.283 140.732 124.144 140.945C123.659 141.443 125.321 147.909 126.637 150.467C128.437 154.02 132.107 157.502 136.124 159.563L139.517 161.197L135.5 161.268C131.623 161.268 131.484 161.339 131.9 162.831C133.284 167.45 138.755 172.353 144.848 174.485L149.142 175.977L145.402 178.251C139.863 181.52 133.354 183.367 126.845 183.509C123.729 183.58 121.167 183.865 121.167 184.078C121.167 184.788 129.615 188.768 134.531 190.331C149.28 194.95 166.799 192.96 179.956 185.073C189.304 179.459 198.652 168.303 203.014 157.502C205.368 151.746 207.723 141.23 207.723 136.185C207.723 132.916 207.93 132.489 211.808 128.581C214.093 126.307 216.24 123.82 216.655 123.11C217.348 121.76 217.279 121.76 213.747 122.968C207.861 125.099 207.03 124.815 209.939 121.618C212.085 119.344 214.647 115.222 214.647 114.014C214.647 113.801 213.609 114.156 212.431 114.796C211.185 115.507 208.415 116.572 206.338 117.212L202.599 118.42L199.206 116.075C197.336 114.796 194.705 113.375 193.32 112.948C189.788 111.954 184.387 112.096 181.202 113.233C172.546 116.43 167.076 124.673 167.699 133.697Z" fill="#1D9BF0"/>
<path d="M112.335 299H116.855V275.04H122.215V271H106.975V275.04H112.335V299ZM128.949 299H134.949L137.549 279.16L140.149 299H145.789L149.269 271H145.309L142.749 293.08L139.989 271H135.189L132.429 293.08L129.869 271H125.469L128.949 299ZM153.559 299H158.119V271H153.559V299ZM167.733 299H172.253V275.04H177.613V271H162.373V275.04H167.733V299ZM186.304 299H190.824V275.04H196.184V271H180.944V275.04H186.304V299ZM200.441 299H213.881V294.96H205.001V286.6H212.121V282.56H205.001V275.04H213.881V271H200.441V299ZM218.387 299H222.947V287.16H225.027C227.587 287.16 228.507 288.12 228.507 290.92V295.32C228.507 297.72 228.667 298.2 228.947 299H233.547C233.107 297.88 233.027 296.76 233.027 295.36V291.2C233.027 287.64 232.067 285.6 229.627 284.92V284.8C231.907 283.96 232.987 282.12 232.987 279.08V277.72C232.987 273.16 230.707 271 225.667 271H218.387V299ZM222.947 283.12V275.04H225.587C227.587 275.04 228.427 276 228.427 278.2V279.8C228.427 282.2 227.347 283.12 225.107 283.12H222.947Z" fill="white"/>
</g>
<defs>
<filter id="filter0_d_2230_1023" x="-48" y="-48" width="438" height="438" filterUnits="userSpaceOnUse" color-interpolation-filters="sRGB">
<feFlood flood-opacity="0" result="BackgroundImageFix"/>
<feColorMatrix in="SourceAlpha" type="matrix" values="0 0 0 0 0 0 0 0 0 0 0 0 0 0 0 0 0 0 127 0" result="hardAlpha"/>
<feOffset/>
<feGaussianBlur stdDeviation="24"/>
<feComposite in2="hardAlpha" operator="out"/>
<feColorMatrix type="matrix" values="0 0 0 0 0.113725 0 0 0 0 0.607843 0 0 0 0 0.941176 0 0 0 0.7 0"/>
<feBlend mode="normal" in2="BackgroundImageFix" result="effect1_dropShadow_2230_1023"/>
<feBlend mode="normal" in="SourceGraphic" in2="effect1_dropShadow_2230_1023" result="shape"/>
</filter>
</defs>
</svg>
