<svg width="342" height="342" viewBox="0 0 342 342" fill="none" xmlns="http://www.w3.org/2000/svg">
<path d="M119.257 299H123.777V275.04H129.137V271H113.897V275.04H119.257V299ZM133.395 299H137.955V271H133.395V299ZM154.849 299H159.649L153.489 281.4L159.569 271H154.929L148.009 283.32V271H143.449V299H148.009V290.16L150.409 286.2L154.849 299ZM176.272 299H180.792V275.04H186.152V271H170.912V275.04H176.272V299ZM197.374 299.4C202.214 299.4 204.894 296.64 204.894 291.88V278.12C204.894 273.32 202.214 270.6 197.374 270.6C192.574 270.6 189.894 273.32 189.894 278.12V291.88C189.894 296.64 192.574 299.4 197.374 299.4ZM197.374 295.36C195.494 295.36 194.454 294.28 194.454 292.12V277.88C194.454 275.68 195.494 274.64 197.374 274.64C199.254 274.64 200.334 275.68 200.334 277.88V292.12C200.334 294.28 199.254 295.36 197.374 295.36ZM221.396 299H226.196L220.036 281.4L226.116 271H221.476L214.556 283.32V271H209.996V299H214.556V290.16L216.956 286.2L221.396 299Z" fill="white"/>
<path fill-rule="evenodd" clip-rule="evenodd" d="M188.197 138.931C193.729 142.883 200.507 145.209 207.827 145.209V131.13C206.441 131.131 205.06 130.986 203.704 130.699V141.781C196.385 141.781 189.608 139.456 184.074 135.503V164.234C184.074 178.607 172.417 190.257 158.038 190.257C152.673 190.257 147.686 188.636 143.543 185.856C148.271 190.687 154.864 193.685 162.159 193.685C176.539 193.685 188.197 182.035 188.197 167.661V138.931H188.197ZM193.282 124.727C190.455 121.64 188.599 117.65 188.197 113.238V111.428H184.29C185.273 117.034 188.627 121.824 193.282 124.727V124.727ZM152.638 174.827C151.058 172.757 150.204 170.224 150.208 167.62C150.208 161.047 155.54 155.717 162.119 155.717C163.344 155.716 164.563 155.904 165.732 156.274V141.881C164.366 141.694 162.988 141.615 161.611 141.644V152.847C160.442 152.477 159.222 152.289 157.996 152.29C151.418 152.29 146.086 157.619 146.086 164.193C146.086 168.842 148.751 172.866 152.638 174.827V174.827Z" fill="#EE1D52"/>
<path fill-rule="evenodd" clip-rule="evenodd" d="M184.074 135.503C189.608 139.456 196.385 141.781 203.704 141.781V130.699C199.619 129.829 196.002 127.695 193.282 124.727C188.627 121.824 185.273 117.034 184.29 111.428H174.029V167.661C174.005 174.216 168.682 179.524 162.118 179.524C158.25 179.524 154.813 177.682 152.637 174.827C148.751 172.867 146.086 168.842 146.086 164.193C146.086 157.619 151.417 152.29 157.996 152.29C159.256 152.29 160.471 152.486 161.61 152.847V141.644C147.484 141.936 136.122 153.472 136.122 167.661C136.122 174.744 138.951 181.165 143.543 185.856C147.686 188.637 152.673 190.258 158.038 190.258C172.417 190.258 184.074 178.607 184.074 164.234V135.503Z" fill="white"/>
<path fill-rule="evenodd" clip-rule="evenodd" d="M203.704 130.699V127.702C200.02 127.707 196.408 126.676 193.282 124.726C196.049 127.754 199.693 129.842 203.704 130.699V130.699ZM184.29 111.427C184.196 110.892 184.124 110.352 184.074 109.811V108H169.906V164.233C169.883 170.788 164.56 176.096 157.996 176.096C156.068 176.096 154.249 175.639 152.637 174.827C154.813 177.681 158.25 179.524 162.118 179.524C168.682 179.524 174.005 174.216 174.029 167.66V111.427H184.29ZM161.611 141.644V138.453C160.427 138.291 159.233 138.21 158.038 138.211C143.657 138.211 132 149.862 132 164.233C132 173.244 136.581 181.184 143.543 185.855C138.952 181.164 136.122 174.743 136.122 167.66C136.122 153.472 147.483 141.935 161.611 141.644V141.644Z" fill="#69C9D0"/>
</svg>
